<mxfile host="app.diagrams.net" modified="2020-10-27T13:11:06.685Z" agent="5.0 (Windows NT 10.0; Win64; x64) AppleWebKit/537.36 (KHTML, like Gecko) Chrome/86.0.4240.111 Safari/537.36" etag="Pih2NOxgN43xv2X1NUlc" version="13.8.3" type="github">
  <diagram id="mkrMn9c-UHcRoRO_fKff" name="第 1 页">
    <mxGraphModel dx="1422" dy="762" grid="1" gridSize="65" guides="1" tooltips="1" connect="0" arrows="1" fold="1" page="1" pageScale="1" pageWidth="1200" pageHeight="1920" math="0" shadow="0">
      <root>
        <mxCell id="0" />
        <mxCell id="1" parent="0" />
        <mxCell id="Khg-rzI-gsH-J4ONfbX--2" value="" style="ellipse;whiteSpace=wrap;html=1;fillColor=#333333;" vertex="1" parent="1">
          <mxGeometry x="997" y="346" width="34" height="34" as="geometry" />
        </mxCell>
        <mxCell id="Khg-rzI-gsH-J4ONfbX--3" value="" style="endArrow=classic;html=1;" edge="1" parent="1">
          <mxGeometry width="50" height="50" relative="1" as="geometry">
            <mxPoint x="1037" y="360.5" as="sourcePoint" />
            <mxPoint x="1147" y="360" as="targetPoint" />
          </mxGeometry>
        </mxCell>
        <mxCell id="Khg-rzI-gsH-J4ONfbX--4" value="&lt;div&gt;&lt;span&gt;&lt;b&gt;INIT&lt;/b&gt;&lt;/span&gt;&lt;/div&gt;" style="rounded=1;whiteSpace=wrap;html=1;fillColor=#1ba1e2;strokeColor=#006EAF;fontColor=#ffffff;align=center;shadow=1;" vertex="1" parent="1">
          <mxGeometry x="1157" y="333" width="120" height="60" as="geometry" />
        </mxCell>
        <mxCell id="Khg-rzI-gsH-J4ONfbX--6" value="" style="rounded=1;whiteSpace=wrap;html=1;fillColor=#1ba1e2;strokeColor=#006EAF;fontColor=#ffffff;" vertex="1" parent="1">
          <mxGeometry x="1157" y="480" width="120" height="60" as="geometry" />
        </mxCell>
        <mxCell id="Khg-rzI-gsH-J4ONfbX--7" value="&lt;font color=&quot;#ffffff&quot;&gt;PROCESSING&lt;/font&gt;" style="text;html=1;strokeColor=none;fillColor=none;align=center;verticalAlign=middle;whiteSpace=wrap;rounded=0;shadow=1;" vertex="1" parent="1">
          <mxGeometry x="1197" y="500" width="40" height="20" as="geometry" />
        </mxCell>
        <mxCell id="Khg-rzI-gsH-J4ONfbX--8" value="" style="endArrow=classic;html=1;entryX=0.5;entryY=0;entryDx=0;entryDy=0;" edge="1" parent="1" target="Khg-rzI-gsH-J4ONfbX--6">
          <mxGeometry width="50" height="50" relative="1" as="geometry">
            <mxPoint x="1216.5" y="400" as="sourcePoint" />
            <mxPoint x="1217" y="460" as="targetPoint" />
          </mxGeometry>
        </mxCell>
        <mxCell id="Khg-rzI-gsH-J4ONfbX--16" value="" style="endArrow=classic;html=1;" edge="1" parent="1">
          <mxGeometry width="50" height="50" relative="1" as="geometry">
            <mxPoint x="1216.5" y="540" as="sourcePoint" />
            <mxPoint x="1216.5" y="600" as="targetPoint" />
          </mxGeometry>
        </mxCell>
        <mxCell id="Khg-rzI-gsH-J4ONfbX--18" value="Check" style="rounded=1;whiteSpace=wrap;html=1;fillColor=#1ba1e2;strokeColor=#006EAF;fontColor=#ffffff;shadow=1;" vertex="1" parent="1">
          <mxGeometry x="1157" y="610" width="120" height="60" as="geometry" />
        </mxCell>
        <mxCell id="Khg-rzI-gsH-J4ONfbX--22" value="" style="endArrow=classic;html=1;exitX=0;exitY=1;exitDx=0;exitDy=0;" edge="1" parent="1" source="Khg-rzI-gsH-J4ONfbX--18">
          <mxGeometry width="50" height="50" relative="1" as="geometry">
            <mxPoint x="1157" y="690" as="sourcePoint" />
            <mxPoint x="1077" y="740" as="targetPoint" />
          </mxGeometry>
        </mxCell>
        <mxCell id="Khg-rzI-gsH-J4ONfbX--23" value="FAIL" style="rounded=1;whiteSpace=wrap;html=1;fillColor=#1ba1e2;strokeColor=#006EAF;fontColor=#ffffff;shadow=1;" vertex="1" parent="1">
          <mxGeometry x="917" y="758" width="120" height="60" as="geometry" />
        </mxCell>
        <mxCell id="Khg-rzI-gsH-J4ONfbX--24" value="SUCCESS" style="rounded=1;whiteSpace=wrap;html=1;fillColor=#1ba1e2;strokeColor=#006EAF;fontColor=#ffffff;shadow=1;" vertex="1" parent="1">
          <mxGeometry x="1372" y="755" width="120" height="60" as="geometry" />
        </mxCell>
        <mxCell id="Khg-rzI-gsH-J4ONfbX--25" value="UNKNOWN" style="rounded=1;whiteSpace=wrap;html=1;fillColor=#1ba1e2;strokeColor=#006EAF;fontColor=#ffffff;shadow=1;" vertex="1" parent="1">
          <mxGeometry x="1153" y="755" width="120" height="60" as="geometry" />
        </mxCell>
        <mxCell id="Khg-rzI-gsH-J4ONfbX--26" value="" style="endArrow=classic;html=1;exitX=0.5;exitY=1;exitDx=0;exitDy=0;" edge="1" parent="1" source="Khg-rzI-gsH-J4ONfbX--18">
          <mxGeometry width="50" height="50" relative="1" as="geometry">
            <mxPoint x="1207" y="740" as="sourcePoint" />
            <mxPoint x="1217" y="750" as="targetPoint" />
          </mxGeometry>
        </mxCell>
        <mxCell id="Khg-rzI-gsH-J4ONfbX--28" value="" style="endArrow=classic;html=1;exitX=1;exitY=1;exitDx=0;exitDy=0;" edge="1" parent="1" source="Khg-rzI-gsH-J4ONfbX--18">
          <mxGeometry width="50" height="50" relative="1" as="geometry">
            <mxPoint x="1307" y="740" as="sourcePoint" />
            <mxPoint x="1377" y="750" as="targetPoint" />
          </mxGeometry>
        </mxCell>
        <mxCell id="Khg-rzI-gsH-J4ONfbX--29" value="ADYEN02_A01B01S01T01" style="text;html=1;strokeColor=none;fillColor=none;align=center;verticalAlign=middle;whiteSpace=wrap;rounded=0;" vertex="1" parent="1">
          <mxGeometry x="1023" y="500" width="40" height="20" as="geometry" />
        </mxCell>
        <mxCell id="Khg-rzI-gsH-J4ONfbX--30" value="&lt;span&gt;&lt;font style=&quot;font-size: 14px&quot;&gt;AUTHORIZATION原子交换&lt;/font&gt;&lt;/span&gt;" style="text;html=1;align=center;verticalAlign=middle;resizable=0;points=[];autosize=1;" vertex="1" parent="1">
          <mxGeometry x="795" y="291" width="195" height="65" as="geometry" />
        </mxCell>
        <mxCell id="Khg-rzI-gsH-J4ONfbX--31" value="原子2&amp;nbsp;&amp;nbsp;GLOBAL01_A03B07S08T22" style="text;html=1;align=center;verticalAlign=middle;resizable=0;points=[];autosize=1;" vertex="1" parent="1">
          <mxGeometry x="656" y="1127" width="210" height="20" as="geometry" />
        </mxCell>
        <mxCell id="Khg-rzI-gsH-J4ONfbX--36" value="" style="ellipse;whiteSpace=wrap;html=1;fillColor=#333333;" vertex="1" parent="1">
          <mxGeometry x="750" y="1037" width="34" height="34" as="geometry" />
        </mxCell>
        <mxCell id="Khg-rzI-gsH-J4ONfbX--40" value="" style="endArrow=classic;html=1;" edge="1" parent="1">
          <mxGeometry width="50" height="50" relative="1" as="geometry">
            <mxPoint x="790" y="1057" as="sourcePoint" />
            <mxPoint x="950" y="1057" as="targetPoint" />
          </mxGeometry>
        </mxCell>
        <mxCell id="Khg-rzI-gsH-J4ONfbX--69" style="edgeStyle=orthogonalEdgeStyle;rounded=0;orthogonalLoop=1;jettySize=auto;html=1;exitX=0.5;exitY=1;exitDx=0;exitDy=0;" edge="1" parent="1" source="Khg-rzI-gsH-J4ONfbX--57">
          <mxGeometry relative="1" as="geometry">
            <mxPoint x="1021.8823529411766" y="1277" as="targetPoint" />
          </mxGeometry>
        </mxCell>
        <mxCell id="Khg-rzI-gsH-J4ONfbX--57" value="" style="rounded=1;whiteSpace=wrap;html=1;fillColor=#1ba1e2;strokeColor=#006EAF;fontColor=#ffffff;shadow=1;" vertex="1" parent="1">
          <mxGeometry x="962" y="1167" width="120" height="60" as="geometry" />
        </mxCell>
        <mxCell id="Khg-rzI-gsH-J4ONfbX--58" value="&lt;font color=&quot;#ffffff&quot;&gt;ACCEPT&lt;/font&gt;" style="text;html=1;strokeColor=none;fillColor=none;align=center;verticalAlign=middle;whiteSpace=wrap;rounded=0;" vertex="1" parent="1">
          <mxGeometry x="997" y="1185" width="40" height="20" as="geometry" />
        </mxCell>
        <mxCell id="Khg-rzI-gsH-J4ONfbX--71" style="edgeStyle=orthogonalEdgeStyle;rounded=0;orthogonalLoop=1;jettySize=auto;html=1;exitX=0.5;exitY=1;exitDx=0;exitDy=0;" edge="1" parent="1" source="Khg-rzI-gsH-J4ONfbX--61">
          <mxGeometry relative="1" as="geometry">
            <mxPoint x="1024.235294117647" y="1407" as="targetPoint" />
          </mxGeometry>
        </mxCell>
        <mxCell id="Khg-rzI-gsH-J4ONfbX--61" value="PROCESSING" style="rounded=1;whiteSpace=wrap;html=1;fillColor=#1ba1e2;strokeColor=#006EAF;fontColor=#ffffff;shadow=1;" vertex="1" parent="1">
          <mxGeometry x="964" y="1283" width="120" height="60" as="geometry" />
        </mxCell>
        <mxCell id="Khg-rzI-gsH-J4ONfbX--67" style="edgeStyle=orthogonalEdgeStyle;rounded=0;orthogonalLoop=1;jettySize=auto;html=1;" edge="1" parent="1" source="Khg-rzI-gsH-J4ONfbX--65">
          <mxGeometry relative="1" as="geometry">
            <mxPoint x="1019.9999999999998" y="1157" as="targetPoint" />
          </mxGeometry>
        </mxCell>
        <mxCell id="Khg-rzI-gsH-J4ONfbX--65" value="&lt;div&gt;&lt;span&gt;&lt;b&gt;INIT&lt;/b&gt;&lt;/span&gt;&lt;/div&gt;" style="rounded=1;whiteSpace=wrap;html=1;fillColor=#1ba1e2;strokeColor=#006EAF;fontColor=#ffffff;align=center;shadow=1;" vertex="1" parent="1">
          <mxGeometry x="960" y="1027" width="120" height="60" as="geometry" />
        </mxCell>
        <mxCell id="Khg-rzI-gsH-J4ONfbX--62" value="Check" style="rounded=1;whiteSpace=wrap;html=1;fillColor=#1ba1e2;strokeColor=#006EAF;fontColor=#ffffff;" vertex="1" parent="1">
          <mxGeometry x="965" y="1396" width="120" height="60" as="geometry" />
        </mxCell>
        <mxCell id="Khg-rzI-gsH-J4ONfbX--72" value="" style="endArrow=classic;html=1;exitX=0;exitY=1;exitDx=0;exitDy=0;" edge="1" parent="1" target="Khg-rzI-gsH-J4ONfbX--73">
          <mxGeometry width="50" height="50" relative="1" as="geometry">
            <mxPoint x="980" y="1456" as="sourcePoint" />
            <mxPoint x="900" y="1552" as="targetPoint" />
          </mxGeometry>
        </mxCell>
        <mxCell id="Khg-rzI-gsH-J4ONfbX--73" value="FAIL" style="rounded=1;whiteSpace=wrap;html=1;fillColor=#1ba1e2;strokeColor=#006EAF;fontColor=#ffffff;shadow=1;" vertex="1" parent="1">
          <mxGeometry x="784" y="1572" width="120" height="60" as="geometry" />
        </mxCell>
        <mxCell id="Khg-rzI-gsH-J4ONfbX--74" value="SUCCESS" style="rounded=1;whiteSpace=wrap;html=1;fillColor=#1ba1e2;strokeColor=#006EAF;fontColor=#ffffff;shadow=1;" vertex="1" parent="1">
          <mxGeometry x="1080" y="1572" width="120" height="60" as="geometry" />
        </mxCell>
        <mxCell id="Khg-rzI-gsH-J4ONfbX--76" value="" style="endArrow=classic;html=1;exitX=0.5;exitY=1;exitDx=0;exitDy=0;" edge="1" parent="1" target="Khg-rzI-gsH-J4ONfbX--74">
          <mxGeometry width="50" height="50" relative="1" as="geometry">
            <mxPoint x="1037" y="1456" as="sourcePoint" />
            <mxPoint x="1037" y="1536" as="targetPoint" />
          </mxGeometry>
        </mxCell>
        <mxCell id="Khg-rzI-gsH-J4ONfbX--78" value="超时" style="text;html=1;align=center;verticalAlign=middle;resizable=0;points=[];autosize=1;" vertex="1" parent="1">
          <mxGeometry x="1164" y="693" width="65" height="65" as="geometry" />
        </mxCell>
        <mxCell id="Khg-rzI-gsH-J4ONfbX--82" value="" style="endArrow=classic;html=1;" edge="1" parent="1">
          <mxGeometry width="50" height="50" relative="1" as="geometry">
            <mxPoint x="1231" y="743" as="sourcePoint" />
            <mxPoint x="1231" y="693" as="targetPoint" />
          </mxGeometry>
        </mxCell>
        <mxCell id="Khg-rzI-gsH-J4ONfbX--121" value="" style="ellipse;whiteSpace=wrap;html=1;fillColor=#333333;" vertex="1" parent="1">
          <mxGeometry x="54" y="491" width="34" height="34" as="geometry" />
        </mxCell>
        <mxCell id="Khg-rzI-gsH-J4ONfbX--122" value="" style="endArrow=classic;html=1;" edge="1" parent="1">
          <mxGeometry width="50" height="50" relative="1" as="geometry">
            <mxPoint x="94" y="505.5" as="sourcePoint" />
            <mxPoint x="204" y="505" as="targetPoint" />
          </mxGeometry>
        </mxCell>
        <mxCell id="Khg-rzI-gsH-J4ONfbX--123" value="&lt;div&gt;&lt;span&gt;&lt;b&gt;INIT&lt;/b&gt;&lt;/span&gt;&lt;/div&gt;" style="rounded=1;whiteSpace=wrap;html=1;fillColor=#1ba1e2;strokeColor=#006EAF;fontColor=#ffffff;align=center;shadow=1;" vertex="1" parent="1">
          <mxGeometry x="214" y="478" width="120" height="60" as="geometry" />
        </mxCell>
        <mxCell id="Khg-rzI-gsH-J4ONfbX--143" style="edgeStyle=orthogonalEdgeStyle;rounded=0;orthogonalLoop=1;jettySize=auto;html=1;" edge="1" parent="1" source="Khg-rzI-gsH-J4ONfbX--124" target="Khg-rzI-gsH-J4ONfbX--132">
          <mxGeometry relative="1" as="geometry">
            <mxPoint x="274" y="780" as="targetPoint" />
          </mxGeometry>
        </mxCell>
        <mxCell id="Khg-rzI-gsH-J4ONfbX--124" value="" style="rounded=1;whiteSpace=wrap;html=1;fillColor=#1ba1e2;strokeColor=#006EAF;fontColor=#ffffff;" vertex="1" parent="1">
          <mxGeometry x="214" y="625" width="120" height="60" as="geometry" />
        </mxCell>
        <mxCell id="Khg-rzI-gsH-J4ONfbX--125" value="&lt;font color=&quot;#ffffff&quot;&gt;PROCESSING&lt;/font&gt;" style="text;html=1;strokeColor=none;fillColor=none;align=center;verticalAlign=middle;whiteSpace=wrap;rounded=0;shadow=1;" vertex="1" parent="1">
          <mxGeometry x="254" y="645" width="40" height="20" as="geometry" />
        </mxCell>
        <mxCell id="Khg-rzI-gsH-J4ONfbX--126" value="" style="endArrow=classic;html=1;entryX=0.5;entryY=0;entryDx=0;entryDy=0;" edge="1" target="Khg-rzI-gsH-J4ONfbX--124" parent="1">
          <mxGeometry width="50" height="50" relative="1" as="geometry">
            <mxPoint x="273.5" y="545" as="sourcePoint" />
            <mxPoint x="274" y="605" as="targetPoint" />
          </mxGeometry>
        </mxCell>
        <mxCell id="Khg-rzI-gsH-J4ONfbX--127" value="" style="endArrow=classic;html=1;entryX=0.766;entryY=0.032;entryDx=0;entryDy=0;entryPerimeter=0;exitX=0.01;exitY=1.023;exitDx=0;exitDy=0;exitPerimeter=0;" edge="1" parent="1" source="Khg-rzI-gsH-J4ONfbX--124" target="Khg-rzI-gsH-J4ONfbX--130">
          <mxGeometry width="50" height="50" relative="1" as="geometry">
            <mxPoint x="260" y="690" as="sourcePoint" />
            <mxPoint x="273.41" y="750" as="targetPoint" />
            <Array as="points" />
          </mxGeometry>
        </mxCell>
        <mxCell id="Khg-rzI-gsH-J4ONfbX--130" value="FAIL" style="rounded=1;whiteSpace=wrap;html=1;fillColor=#1ba1e2;strokeColor=#006EAF;fontColor=#ffffff;shadow=1;" vertex="1" parent="1">
          <mxGeometry x="8" y="815" width="120" height="60" as="geometry" />
        </mxCell>
        <mxCell id="Khg-rzI-gsH-J4ONfbX--131" value="SUCCESS" style="rounded=1;whiteSpace=wrap;html=1;fillColor=#1ba1e2;strokeColor=#006EAF;fontColor=#ffffff;shadow=1;" vertex="1" parent="1">
          <mxGeometry x="455" y="815" width="120" height="60" as="geometry" />
        </mxCell>
        <mxCell id="Khg-rzI-gsH-J4ONfbX--132" value="UNKNOWN" style="rounded=1;whiteSpace=wrap;html=1;fillColor=#1ba1e2;strokeColor=#006EAF;fontColor=#ffffff;shadow=1;" vertex="1" parent="1">
          <mxGeometry x="214" y="812" width="120" height="60" as="geometry" />
        </mxCell>
        <mxCell id="Khg-rzI-gsH-J4ONfbX--135" value="ADYEN02_C01B01S01G01" style="text;html=1;strokeColor=none;fillColor=none;align=center;verticalAlign=middle;whiteSpace=wrap;rounded=0;" vertex="1" parent="1">
          <mxGeometry x="67" y="648" width="40" height="20" as="geometry" />
        </mxCell>
        <mxCell id="Khg-rzI-gsH-J4ONfbX--136" value="组合单" style="text;html=1;align=center;verticalAlign=middle;resizable=0;points=[];autosize=1;" vertex="1" parent="1">
          <mxGeometry x="2" y="603" width="65" height="65" as="geometry" />
        </mxCell>
        <mxCell id="Khg-rzI-gsH-J4ONfbX--144" value="" style="endArrow=classic;html=1;exitX=0.971;exitY=1.062;exitDx=0;exitDy=0;exitPerimeter=0;" edge="1" parent="1" source="Khg-rzI-gsH-J4ONfbX--124" target="Khg-rzI-gsH-J4ONfbX--131">
          <mxGeometry width="50" height="50" relative="1" as="geometry">
            <mxPoint x="282" y="715" as="sourcePoint" />
            <mxPoint x="375" y="715" as="targetPoint" />
          </mxGeometry>
        </mxCell>
        <mxCell id="Khg-rzI-gsH-J4ONfbX--145" value="" style="endArrow=classic;html=1;entryX=0.002;entryY=0.483;entryDx=0;entryDy=0;entryPerimeter=0;" edge="1" parent="1" source="Khg-rzI-gsH-J4ONfbX--132" target="Khg-rzI-gsH-J4ONfbX--131">
          <mxGeometry width="50" height="50" relative="1" as="geometry">
            <mxPoint x="334" y="892" as="sourcePoint" />
            <mxPoint x="404.71067811865476" y="842" as="targetPoint" />
          </mxGeometry>
        </mxCell>
        <mxCell id="Khg-rzI-gsH-J4ONfbX--146" value="" style="endArrow=classic;html=1;" edge="1" parent="1" source="Khg-rzI-gsH-J4ONfbX--132" target="Khg-rzI-gsH-J4ONfbX--130">
          <mxGeometry width="50" height="50" relative="1" as="geometry">
            <mxPoint x="130" y="895" as="sourcePoint" />
            <mxPoint x="180" y="845" as="targetPoint" />
          </mxGeometry>
        </mxCell>
        <mxCell id="Khg-rzI-gsH-J4ONfbX--147" value="Message Type error" style="text;html=1;align=center;verticalAlign=middle;resizable=0;points=[];autosize=1;" vertex="1" parent="1">
          <mxGeometry x="294" y="747" width="130" height="65" as="geometry" />
        </mxCell>
        <mxCell id="Khg-rzI-gsH-J4ONfbX--148" value="" style="endArrow=classic;html=1;exitX=1.02;exitY=0.533;exitDx=0;exitDy=0;exitPerimeter=0;" edge="1" parent="1" source="Khg-rzI-gsH-J4ONfbX--25">
          <mxGeometry width="50" height="50" relative="1" as="geometry">
            <mxPoint x="1306" y="788" as="sourcePoint" />
            <mxPoint x="1356" y="788" as="targetPoint" />
          </mxGeometry>
        </mxCell>
        <mxCell id="Khg-rzI-gsH-J4ONfbX--149" value="" style="endArrow=classic;html=1;entryX=1.005;entryY=0.514;entryDx=0;entryDy=0;entryPerimeter=0;exitX=-0.039;exitY=0.573;exitDx=0;exitDy=0;exitPerimeter=0;" edge="1" parent="1" source="Khg-rzI-gsH-J4ONfbX--25">
          <mxGeometry width="50" height="50" relative="1" as="geometry">
            <mxPoint x="1111" y="838" as="sourcePoint" />
            <mxPoint x="1063.6000000000004" y="785.8399999999999" as="targetPoint" />
          </mxGeometry>
        </mxCell>
        <mxCell id="Khg-rzI-gsH-J4ONfbX--151" value="" style="endArrow=classic;html=1;fillColor=#f8cecc;strokeColor=#b85450;" edge="1" parent="1">
          <mxGeometry width="50" height="50" relative="1" as="geometry">
            <mxPoint x="274" y="585" as="sourcePoint" />
            <mxPoint x="650" y="585" as="targetPoint" />
          </mxGeometry>
        </mxCell>
        <mxCell id="Khg-rzI-gsH-J4ONfbX--153" value="&lt;b&gt;&lt;font style=&quot;font-size: 20px&quot;&gt;Create Action&amp;nbsp;&lt;/font&gt;&lt;/b&gt;" style="text;html=1;align=center;verticalAlign=middle;resizable=0;points=[];autosize=1;" vertex="1" parent="1">
          <mxGeometry x="378" y="498" width="195" height="65" as="geometry" />
        </mxCell>
        <mxCell id="Khg-rzI-gsH-J4ONfbX--154" value="AUTHORIZATION" style="rounded=1;whiteSpace=wrap;html=1;shadow=1;fillColor=#e1d5e7;strokeColor=#9673a6;" vertex="1" parent="1">
          <mxGeometry x="656" y="550" width="120" height="60" as="geometry" />
        </mxCell>
        <mxCell id="Khg-rzI-gsH-J4ONfbX--156" value="" style="endArrow=classic;html=1;" edge="1" parent="1">
          <mxGeometry width="50" height="50" relative="1" as="geometry">
            <mxPoint x="254" y="780" as="sourcePoint" />
            <mxPoint x="254" y="703" as="targetPoint" />
          </mxGeometry>
        </mxCell>
        <mxCell id="Khg-rzI-gsH-J4ONfbX--157" value="IPN" style="text;html=1;strokeColor=none;fillColor=none;align=center;verticalAlign=middle;whiteSpace=wrap;rounded=0;shadow=1;" vertex="1" parent="1">
          <mxGeometry x="214" y="738" width="40" height="20" as="geometry" />
        </mxCell>
        <mxCell id="Khg-rzI-gsH-J4ONfbX--158" value="" style="endArrow=classic;html=1;fillColor=#f8cecc;strokeColor=#b85450;" edge="1" parent="1">
          <mxGeometry width="50" height="50" relative="1" as="geometry">
            <mxPoint x="260" y="765" as="sourcePoint" />
            <mxPoint x="585" y="765" as="targetPoint" />
          </mxGeometry>
        </mxCell>
        <mxCell id="Khg-rzI-gsH-J4ONfbX--159" value="IPN" style="rounded=1;whiteSpace=wrap;html=1;shadow=1;fillColor=#e1d5e7;strokeColor=#9673a6;" vertex="1" parent="1">
          <mxGeometry x="630" y="738" width="120" height="60" as="geometry" />
        </mxCell>
        <mxCell id="Khg-rzI-gsH-J4ONfbX--160" value="&lt;span&gt;IPN原子交换&lt;/span&gt;" style="text;html=1;align=center;verticalAlign=middle;resizable=0;points=[];autosize=1;" vertex="1" parent="1">
          <mxGeometry x="787" y="960" width="130" height="65" as="geometry" />
        </mxCell>
        <mxCell id="Khg-rzI-gsH-J4ONfbX--161" value="" style="endArrow=none;dashed=1;html=1;dashPattern=1 3;strokeWidth=2;" edge="1" parent="1">
          <mxGeometry width="50" height="50" relative="1" as="geometry">
            <mxPoint x="93" y="922" as="sourcePoint" />
            <mxPoint x="254" y="715" as="targetPoint" />
          </mxGeometry>
        </mxCell>
        <mxCell id="Khg-rzI-gsH-J4ONfbX--164" value="&lt;font color=&quot;#ffffff&quot;&gt;Deposit EventT&lt;br&gt;(FAIL)&lt;br&gt;&lt;/font&gt;" style="rounded=1;whiteSpace=wrap;html=1;shadow=1;fillColor=#333333;" vertex="1" parent="1">
          <mxGeometry x="27" y="930" width="120" height="60" as="geometry" />
        </mxCell>
        <mxCell id="Khg-rzI-gsH-J4ONfbX--165" value="" style="endArrow=none;dashed=1;html=1;dashPattern=1 3;strokeWidth=2;" edge="1" parent="1">
          <mxGeometry width="50" height="50" relative="1" as="geometry">
            <mxPoint x="325" y="693" as="sourcePoint" />
            <mxPoint x="520" y="693" as="targetPoint" />
          </mxGeometry>
        </mxCell>
        <mxCell id="Khg-rzI-gsH-J4ONfbX--166" value="&lt;font color=&quot;#ffffff&quot;&gt;Deposit EventT&lt;br&gt;(SUCCESS)&lt;br&gt;&lt;/font&gt;" style="rounded=1;whiteSpace=wrap;html=1;shadow=1;fillColor=#333333;" vertex="1" parent="1">
          <mxGeometry x="540" y="648" width="120" height="60" as="geometry" />
        </mxCell>
        <mxCell id="Khg-rzI-gsH-J4ONfbX--168" value="&lt;font color=&quot;#ffffff&quot;&gt;Deposit EventT&lt;br&gt;(FAIL)&lt;br&gt;&lt;/font&gt;" style="rounded=1;whiteSpace=wrap;html=1;shadow=1;fillColor=#333333;" vertex="1" parent="1">
          <mxGeometry x="294" y="930" width="120" height="60" as="geometry" />
        </mxCell>
        <mxCell id="Khg-rzI-gsH-J4ONfbX--169" value="" style="endArrow=none;dashed=1;html=1;dashPattern=1 3;strokeWidth=2;" edge="1" parent="1">
          <mxGeometry width="50" height="50" relative="1" as="geometry">
            <mxPoint x="277" y="960" as="sourcePoint" />
            <mxPoint x="147" y="765" as="targetPoint" />
          </mxGeometry>
        </mxCell>
      </root>
    </mxGraphModel>
  </diagram>
</mxfile>
